<?xml version="1.0" encoding="utf-8"?>
<!-- Generator: Adobe Illustrator 18.0.0, SVG Export Plug-In . SVG Version: 6.00 Build 0)  -->
<!DOCTYPE svg PUBLIC "-//W3C//DTD SVG 1.1//EN" "http://www.w3.org/Graphics/SVG/1.1/DTD/svg11.dtd">
<svg version="1.1" id="Layer_1" xmlns="http://www.w3.org/2000/svg" xmlns:xlink="http://www.w3.org/1999/xlink" x="0px" y="0px"
	 viewBox="0 0 86 86" enable-background="new 0 0 86 86" xml:space="preserve">
<g id="mark_6_">
	<path fill="#1F3244" d="M68.2,55.8c-4.2,2.3-9.1,3.6-14.2,3.5c-15.3-0.3-27.4-12.7-27.1-27.6C27,26.7,28.5,22,31.1,18
		c-8.2,4.6-13.8,13.1-14,23C16.8,55.9,29,68.2,44.2,68.5C54.3,68.7,63.2,63.6,68.2,55.8"/>
	<path fill="#3E95BE" d="M53.7,56.2c0.2,0,0.3,0,0.5,0c4,0,7.9-1,11.4-2.8c2.1-3.5,3.3-7.6,3.3-12c0-13.2-10.6-23.9-23.8-23.9
		c-4.1,0-8,1.1-11.4,2.9c-2.2,3.5-3.4,7.6-3.5,11.7C29.9,45.1,40.5,55.9,53.7,56.2"/>
</g>
</svg>
